<?xml version="1.0" encoding="iso-8859-1"?>
<!-- Generator: Adobe Illustrator 19.0.0, SVG Export Plug-In . SVG Version: 6.00 Build 0)  -->
<svg version="1.1" id="Layer_1" xmlns="http://www.w3.org/2000/svg" xmlns:xlink="http://www.w3.org/1999/xlink" x="0px" y="0px"
	 viewBox="0 0 512 512" style="enable-background:new 0 0 512 512;" xml:space="preserve">
<g>
	<rect x="246.266" y="134.231" style="fill:#D8D8D8;" width="19.483" height="185.089"/>
	<circle style="fill:#D8D8D8;" cx="256.008" cy="387.511" r="9.742"/>
</g>
<path style="fill:#E65F58;" d="M267.987,55.685c-3.539-5.798-7.905-9.128-11.986-9.128c-4.081,0.005-8.448,3.33-11.987,9.123v0.005
	L23.088,417.758c-3.415,5.598-4.452,10.731-2.778,13.718c1.665,2.968,6.545,4.742,13.043,4.742h445.285
	c6.507,0,11.378-1.774,13.052-4.742c1.674-2.992,0.637-8.12-2.778-13.718L267.987,55.685z M256,416.735
	c-16.115,0-29.225-13.109-29.225-29.225c0-16.115,13.109-29.225,29.225-29.225s29.225,13.109,29.225,29.225
	C285.225,403.626,272.115,416.735,256,416.735z M285.225,329.062c0,5.38-4.357,9.742-9.742,9.742h-38.966
	c-5.384,0-9.742-4.362-9.742-9.742V124.489c0-5.38,4.357-9.742,9.742-9.742h38.966c5.384,0,9.742,4.362,9.742,9.742V329.062z"/>
<g>
	<path style="fill:#314E55;" d="M505.541,407.608L284.616,45.534c-7.154-11.73-17.59-18.46-28.625-18.46
		c-11.026,0.005-21.452,6.735-28.607,18.465v-0.005L6.459,407.608c-7.354,12.049-8.467,23.912-3.139,33.406
		c5.318,9.47,15.982,14.688,30.033,14.688h445.285c14.051,0,24.725-5.218,30.043-14.693
		C514.008,431.514,512.895,419.651,505.541,407.608z M491.69,431.476c-1.674,2.968-6.545,4.742-13.052,4.742H33.353
		c-6.498,0-11.378-1.774-13.043-4.742c-1.674-2.987-0.637-8.12,2.778-13.718L244.013,55.685V55.68
		c3.539-5.794,7.906-9.118,11.987-9.123c4.081,0,8.448,3.33,11.987,9.128l220.925,362.073
		C492.328,423.357,493.364,428.484,491.69,431.476z"/>
	<path style="fill:#314E55;" d="M275.483,114.748h-38.966c-5.384,0-9.742,4.362-9.742,9.742v204.572c0,5.38,4.357,9.742,9.742,9.742
		h38.966c5.384,0,9.742-4.362,9.742-9.742V124.489C285.225,119.109,280.868,114.748,275.483,114.748z M265.742,319.32h-19.483
		V134.231h19.483V319.32z"/>
	<path style="fill:#314E55;" d="M256,358.286c-16.115,0-29.225,13.109-29.225,29.225c0,16.115,13.109,29.225,29.225,29.225
		s29.225-13.109,29.225-29.225C285.225,371.395,272.115,358.286,256,358.286z M256,397.252c-5.375,0-9.742-4.371-9.742-9.742
		c0-5.37,4.367-9.742,9.742-9.742c5.375,0,9.742,4.371,9.742,9.742C265.742,392.881,261.375,397.252,256,397.252z"/>
	<path style="fill:#314E55;" d="M382.64,465.443H129.36c-5.384,0-9.742,4.362-9.742,9.742s4.357,9.742,9.742,9.742h253.28
		c5.384,0,9.742-4.362,9.742-9.742S388.025,465.443,382.64,465.443z"/>
</g>
<g>
</g>
<g>
</g>
<g>
</g>
<g>
</g>
<g>
</g>
<g>
</g>
<g>
</g>
<g>
</g>
<g>
</g>
<g>
</g>
<g>
</g>
<g>
</g>
<g>
</g>
<g>
</g>
<g>
</g>
</svg>
